<?xml version="1.0" encoding="UTF-8"?>
<svg id="Layer_1" data-name="Layer 1" xmlns="http://www.w3.org/2000/svg" viewBox="0 0 347.16 92.4">
  <defs>
    <style>
      .cls-1 {
        fill: #0b3352;
      }

      .cls-2 {
        fill: #faf6ee;
      }
    </style>
  </defs>
  <g>
    <circle class="cls-1" cx="46.2" cy="46.2" r="46.2"/>
    <path class="cls-2" d="M24.03,53.18c.98-1.22,2.17-.61,3.27-.06,3.42,1.7,10.28,6.34,13.55,8.74.44.32,2.18,1.43,2.08,1.96l-7.88,6.27-7.95-5.22c-2.37-1.71-5.08-9.18-3.08-11.69Z"/>
    <path class="cls-2" d="M68.07,53.18c-.98-1.22-2.17-.61-3.27-.06-3.42,1.7-10.28,6.34-13.55,8.74-.44.32-2.18,1.43-2.08,1.96l7.88,6.27,7.95-5.22c2.37-1.71,5.08-9.18,3.08-11.69Z"/>
    <path class="cls-2" d="M27.67,40.36c.73-.15,1.99.51,2.7.83,1.61.74,12.83,7.26,12.84,8.31l-7.87,6.56-.72-.09c-2.07-1.97-5.51-3.07-7.51-4.8-2.41-2.09-2.39-10.2.57-10.81Z"/>
    <path class="cls-2" d="M65.64,41.04c.43.5.73,1.54.92,2.22,2.26,8.42-4.55,9.26-9.24,12.82l-.54-.02c-2.27-2.32-4.8-4.4-7.59-5.8-.07-.33-.01-.62.12-.92.53-1.15,11.34-7.58,13.07-8.37,1.19-.55,2.15-1.2,3.26.06Z"/>
    <path class="cls-2" d="M55.12,57.41l-9.06,5.84-9.08-6.27c.02-1.12,7.8-6.11,9.09-6.09,1.21.02,8.14,4.31,8.83,5.44.2.33.37.65.22,1.07Z"/>
    <path class="cls-2" d="M55.12,70.45l-9.06,5.84-9.08-6.27c.02-1.12,7.8-6.11,9.09-6.09,1.21.02,8.14,4.31,8.83,5.44.2.33.37.65.22,1.07Z"/>
    <path class="cls-2" d="M43.45,36.3c.17.54-.05.86-.36,1.22-.82.95-3.64,2.47-4.85,3.47-.5.41-1.46,1.81-1.9,1.77-1.98-1.71-6.26-2.53-7.1-5.25-.68-2.21-.24-7.57,2.44-7.64,3-.07,8.9,5.01,11.77,6.43Z"/>
    <path class="cls-2" d="M48.91,37.19c-.44-.68,2.54-2.6,3.01-2.93,1.96-1.41,6.62-4.51,8.8-4.24,2.64.33,3.27,6.25,1.91,8.43-.5.8-5.51,3.83-6.32,3.99-.95.18-2.69-2.05-3.67-2.83-1.11-.88-2.47-1.87-3.72-2.43Z"/>
    <path class="cls-2" d="M45.86,38.19c1.43-.19,8.43,4.26,8.21,5.39l-7.59,5.33c-.5.2-.87-.21-1.27-.44-2.03-1.15-4.12-3.26-6.32-4.28-.23-.21-.62-.49-.55-.89.17-.94,6.45-4.97,7.52-5.11Z"/>
    <path class="cls-2" d="M45.32,14.21c1.97-.31,4.17,1.34,5.33,3.07.8,1.19,1.78,2.58.71,3.88-.62.75-4.6,4.17-5.3,4.17-.85,0-6.08-4.62-6.1-5.42-.04-1.95,3.64-5.43,5.36-5.7Z"/>
    <path class="cls-2" d="M45.86,27.29c1.03-.1,6.13,3.15,6.29,4.19.06.47-.31.62-.55.87-.36.38-4.97,3.89-5.29,3.92-1.22.14-5.15-4.21-6.63-4.83-.01-.5,5.31-4.07,6.17-4.15Z"/>
    <path class="cls-2" d="M48.72,25.14c.2-.26,4.25-3.07,4.65-3.22,3.57-1.38,5.15,2.6,5.26,6.03-.2,1-3.89,2.9-4.64,2.66l-5.51-4.32c-.2-.37.01-.86.24-1.15Z"/>
    <path class="cls-2" d="M43.75,26.29c-1.44.2-4.82,4.16-5.87,4.29-.83.1-3.97-1.75-4.16-2.89-.5-2.94,1.65-6.55,4.41-6,.97.2,4.15,2.53,4.94,3.37.33.35.78.62.69,1.23Z"/>
    <path class="cls-2" d="M43.34,76.23c-3.81,3.02-8.47,1.5-11.77-1.5,4.97-4.07,7.41-1.89,11.77,1.5Z"/>
    <path class="cls-2" d="M49.29,76.23c3.81,3.02,8.47,1.5,11.77-1.5-4.97-4.07-7.41-1.89-11.77,1.5Z"/>
  </g>
  <g>
    <path class="cls-1" d="M102.73,17.9h10.79c3.16,0,5.56.61,7.2,1.82,1.64,1.22,2.46,2.99,2.46,5.32,0,1.48-.4,2.79-1.2,3.92-.8,1.13-1.91,1.9-3.32,2.32l-.04-.66c1.85.19,3.31.93,4.39,2.21,1.08,1.28,1.62,2.84,1.62,4.69,0,2.67-.86,4.69-2.59,6.05-1.73,1.36-4.27,2.04-7.62,2.04h-11.71v-27.71ZM106.05,40.59h7.91c1.22,0,2.14-.29,2.77-.86.63-.57.95-1.38.95-2.42,0-2.19-1.29-3.28-3.87-3.28h-7.91v-4.85h7c1.24,0,2.16-.27,2.75-.8.6-.53.89-1.34.89-2.41,0-1-.3-1.75-.91-2.26-.61-.51-1.51-.77-2.7-.77h-6.89l3.21-4.67v26.99l-3.21-4.67Z"/>
    <path class="cls-1" d="M129.13,17.9h10.03c2.28,0,4.24.38,5.85,1.13,1.62.75,2.86,1.83,3.72,3.23.86,1.4,1.29,3.09,1.29,5.09,0,1.39-.29,2.66-.88,3.81s-1.37,2.14-2.35,2.95c-.98.81-2.07,1.45-3.26,1.91-1.19.46-2.4.69-3.61.69h-7.77v-5.36h5.98c1.6,0,2.8-.33,3.59-1s1.19-1.7,1.19-3.08-.38-2.37-1.15-3.03-1.95-.98-3.56-.98h-5.87l3.76-5v27.35h-6.97v-27.71ZM137.95,33.29h7.07l7.69,12.33h-8.06l-6.71-12.33Z"/>
    <path class="cls-1" d="M156.41,17.9h7.37v27.71h-7.37v-27.71Z"/>
    <path class="cls-1" d="M194.62,43.87c-1.56.71-3.28,1.24-5.16,1.6-1.88.36-3.77.55-5.67.55-3.16,0-5.9-.57-8.22-1.7-2.32-1.13-4.12-2.74-5.38-4.81-1.26-2.08-1.9-4.53-1.9-7.35,0-2.24.38-4.25,1.15-6.04.77-1.79,1.87-3.32,3.3-4.61,1.43-1.29,3.15-2.28,5.14-2.97s4.22-1.04,6.67-1.04c1.65,0,3.33.19,5.03.57,1.7.38,3.22.89,4.56,1.55l-1.17,5.87c-1.39-.63-2.8-1.1-4.23-1.4-1.44-.3-2.86-.46-4.27-.46-1.8,0-3.37.34-4.7,1.02-1.34.68-2.37,1.64-3.1,2.86-.73,1.23-1.09,2.68-1.09,4.36s.35,3.16,1.04,4.38c.69,1.22,1.69,2.15,2.99,2.79,1.3.64,2.86.97,4.69.97.63,0,1.25-.04,1.84-.13.6-.08,1.22-.2,1.88-.35v-7.44l3.21,2.92h-7.91v-5.36h11.31v14.22Z"/>
    <path class="cls-1" d="M199.77,17.9h7.37v27.71h-7.37v-27.71ZM203.49,28.44h18.09v5.91h-18.09v-5.91ZM217.93,17.9h7.37v27.71h-7.37v-27.71Z"/>
    <path class="cls-1" d="M237.98,23.85h-8.5v-5.94h24.4v5.94h-8.5v21.77h-7.4v-21.77Z"/>
    <path class="cls-1" d="M276.91,42.12c-.89,1.31-2.16,2.32-3.81,3.03-1.65.71-3.66,1.06-6.02,1.06-1.24,0-2.49-.1-3.74-.31-1.25-.21-2.4-.49-3.45-.86-1.05-.36-1.91-.77-2.59-1.2l.62-5.91c1.17.75,2.55,1.35,4.16,1.79s3.16.66,4.67.66c1.36,0,2.4-.22,3.12-.67.72-.45,1.08-1.1,1.08-1.95,0-.51-.13-.94-.4-1.29-.27-.35-.75-.69-1.44-1-.69-.32-1.66-.64-2.9-.98-1.97-.56-3.58-1.22-4.83-1.99-1.25-.77-2.16-1.69-2.74-2.77-.57-1.08-.86-2.36-.86-3.85,0-1.77.42-3.3,1.28-4.58.85-1.28,2.07-2.25,3.65-2.94,1.58-.68,3.45-1.02,5.62-1.02,1.58,0,3.15.19,4.72.58,1.57.39,2.87.91,3.92,1.57l-.95,5.69c-.97-.61-2.14-1.09-3.5-1.46-1.36-.36-2.65-.55-3.87-.55s-2.18.21-2.83.62c-.64.41-.97,1.02-.97,1.82,0,.49.12.89.37,1.22.24.33.67.63,1.28.89.61.27,1.43.57,2.48.91,2.21.61,3.99,1.31,5.34,2.12,1.35.8,2.34,1.74,2.97,2.83.63,1.08.95,2.35.95,3.81,0,1.85-.44,3.43-1.33,4.74Z"/>
    <path class="cls-1" d="M282.91,17.9h7.37v27.71h-7.37v-27.71Z"/>
    <path class="cls-1" d="M296.11,17.9h11.05c3.38,0,6.24.53,8.57,1.6,2.33,1.07,4.11,2.64,5.32,4.7,1.21,2.07,1.82,4.58,1.82,7.55s-.63,5.38-1.9,7.46c-1.26,2.08-3.08,3.67-5.45,4.76-2.37,1.09-5.22,1.64-8.55,1.64h-10.87v-27.71ZM299.57,39.82h7.15c2.84,0,4.98-.67,6.42-2.02s2.15-3.36,2.15-6.04-.72-4.69-2.15-6.04c-1.43-1.35-3.57-2.02-6.42-2.02h-7.15l3.79-5.43v26.99l-3.79-5.43Z"/>
    <path class="cls-1" d="M327.4,17.9h19.25v5.58h-15.79l3.25-5.21v26.99l-3.25-5.21h16.3v5.58h-19.77v-27.71ZM330.46,28.81h14.7v5.58h-14.7v-5.58Z"/>
  </g>
  <g>
    <path class="cls-2" d="M138.77,56.66v21.48h12.36v2.51h-15.05v-23.99h2.69Z"/>
    <path class="cls-2" d="M185.12,75.57h-12.13l-1.86,5.08h-2.86l8.79-23.99h3.8l8.96,23.99h-2.83l-1.86-5.08ZM184.33,73.41l-5.32-14.54-5.27,14.54h10.59Z"/>
    <path class="cls-2" d="M239.11,56.66l-7.56,23.99h-4.11l-6.3-21.6h-.05s-.29,1.09-.29,1.09l-.3,1.09-5.79,19.42h-4.04l-7.37-23.99h2.78l6.56,21.92h.05s1.35-4.66,1.35-4.66l5.1-17.26h4.01l6.4,21.92h.06s1.41-4.71,1.41-4.71l5.27-17.21h2.84Z"/>
    <path class="cls-2" d="M278.16,56.66v23.99h-4.43l-13.34-21.69h-.07l.04,1.81v19.88h-2.69v-23.99h4.42l13.35,21.81h.03s0-1.81,0-1.81v-20h2.69Z"/>
    <path class="cls-2" d="M315.38,63.16h-2.69c0-1.17-.09-2.02-.26-2.53-.29-.84-.88-1.38-1.76-1.62-.7-.19-1.85-.28-3.45-.28-2.86,0-4.66.24-5.41.72-.83.53-1.25,1.67-1.25,3.43,0,2.09.57,3.35,1.72,3.8.56.22,2.21.39,4.96.51,1.84.08,3.02.16,3.55.23,1.54.19,2.64.55,3.3,1.09,1.15.91,1.72,2.71,1.72,5.38,0,2.53-.41,4.26-1.23,5.19-.79.88-2.09,1.44-3.92,1.69-.76.09-2.23.14-4.41.14-2.45,0-4.11-.13-4.99-.4-1.97-.61-3.11-2.13-3.41-4.55-.07-.57-.12-1.48-.14-2.71h2.69v.6c.01,1.35.13,2.31.35,2.88.39,1,1.24,1.6,2.57,1.81.25.04,1.38.05,3.41.05s3.4-.09,4.11-.28c1.04-.27,1.72-.86,2.02-1.78.18-.53.26-1.49.26-2.88,0-1.85-.49-2.99-1.48-3.41-.49-.21-2.18-.39-5.06-.54-1.01-.05-2.02-.09-3.04-.14-1.21-.11-2.19-.34-2.94-.7-1.83-.89-2.74-2.76-2.74-5.61s.6-4.52,1.79-5.44,3.56-1.38,7.1-1.38c2.54,0,4.32.16,5.34.49,1.77.57,2.81,1.84,3.13,3.8.09.57.14,1.39.14,2.46Z"/>
  </g>
</svg>