<svg xmlns="http://www.w3.org/2000/svg" viewBox="0 0 92.4 92.4">
  <circle fill="#0b3352" cx="46.2" cy="46.2" r="46.2"/>
  <path fill="#faf6ee" d="M24.03,53.18c.98-1.22,2.17-.61,3.27-.06,3.42,1.7,10.28,6.34,13.55,8.74.44.32,2.18,1.43,2.08,1.96l-7.88,6.27-7.95-5.22c-2.37-1.71-5.08-9.18-3.08-11.69Z"/>
  <path fill="#faf6ee" d="M68.07,53.18c-.98-1.22-2.17-.61-3.27-.06-3.42,1.7-10.28,6.34-13.55,8.74-.44.32-2.18,1.43-2.08,1.96l7.88,6.27,7.95-5.22c2.37-1.71,5.08-9.18,3.08-11.69Z"/>
  <path fill="#faf6ee" d="M27.67,40.36c.73-.15,1.99.51,2.7.83,1.61.74,12.83,7.26,12.84,8.31l-7.87,6.56-.72-.09c-2.07-1.97-5.51-3.07-7.51-4.8-2.41-2.09-2.39-10.2.57-10.81Z"/>
  <path fill="#faf6ee" d="M65.64,41.04c.43.5.73,1.54.92,2.22,2.26,8.42-4.55,9.26-9.24,12.82l-.54-.02c-2.27-2.32-4.8-4.4-7.59-5.8-.07-.33-.01-.62.12-.92.53-1.15,11.34-7.58,13.07-8.37,1.19-.55,2.15-1.2,3.26.06Z"/>
  <path fill="#faf6ee" d="M55.12,57.41l-9.06,5.84-9.08-6.27c.02-1.12,7.8-6.11,9.09-6.09,1.21.02,8.14,4.31,8.83,5.44.2.33.37.65.22,1.07Z"/>
  <path fill="#faf6ee" d="M55.12,70.45l-9.06,5.84-9.08-6.27c.02-1.12,7.8-6.11,9.09-6.09,1.21.02,8.14,4.31,8.83,5.44.2.33.37.65.22,1.07Z"/>
  <path fill="#faf6ee" d="M43.45,36.3c.17.54-.05.86-.36,1.22-.82.95-3.64,2.47-4.85,3.47-.5.41-1.46,1.81-1.9,1.77-1.98-1.71-6.26-2.53-7.1-5.25-.68-2.21-.24-7.57,2.44-7.64,3-.07,8.9,5.01,11.77,6.43Z"/>
  <path fill="#faf6ee" d="M48.91,37.19c-.44-.68,2.54-2.6,3.01-2.93,1.96-1.41,6.62-4.51,8.8-4.24,2.64.33,3.27,6.25,1.91,8.43-.5.8-5.51,3.83-6.32,3.99-.95.18-2.69-2.05-3.67-2.83-1.11-.88-2.47-1.87-3.72-2.43Z"/>
  <path fill="#faf6ee" d="M45.86,38.19c1.43-.19,8.43,4.26,8.21,5.39l-7.59,5.33c-.5.2-.87-.21-1.27-.44-2.03-1.15-4.12-3.26-6.32-4.28-.23-.21-.62-.49-.55-.89.17-.94,6.45-4.97,7.52-5.11Z"/>
  <path fill="#faf6ee" d="M45.32,14.21c1.97-.31,4.17,1.34,5.33,3.07.8,1.19,1.78,2.58.71,3.88-.62.75-4.6,4.17-5.3,4.17-.85,0-6.08-4.62-6.1-5.42-.04-1.95,3.64-5.43,5.36-5.7Z"/>
  <path fill="#faf6ee" d="M45.86,27.29c1.03-.1,6.13,3.15,6.29,4.19.06.47-.31.62-.55.87-.36.38-4.97,3.89-5.29,3.92-1.22.14-5.15-4.21-6.63-4.83-.01-.5,5.31-4.07,6.17-4.15Z"/>
  <path fill="#faf6ee" d="M48.72,25.14c.2-.26,4.25-3.07,4.65-3.22,3.57-1.38,5.15,2.6,5.26,6.03-.2,1-3.89,2.9-4.64,2.66l-5.51-4.32c-.2-.37.01-.86.24-1.15Z"/>
  <path fill="#faf6ee" d="M43.75,26.29c-1.44.2-4.82,4.16-5.87,4.29-.83.1-3.97-1.75-4.16-2.89-.5-2.94,1.65-6.55,4.41-6,.97.2,4.15,2.53,4.94,3.37.33.35.78.62.69,1.23Z"/>
  <path fill="#faf6ee" d="M43.34,76.23c-3.81,3.02-8.47,1.5-11.77-1.5,4.97-4.07,7.41-1.89,11.77,1.5Z"/>
  <path fill="#faf6ee" d="M49.29,76.23c3.81,3.02,8.47,1.5,11.77-1.5-4.97-4.07-7.41-1.89-11.77,1.5Z"/>
</svg>
